<?xml version="1.0" encoding="utf-8"?>
<!-- Generator: Adobe Illustrator 25.2.1, SVG Export Plug-In . SVG Version: 6.00 Build 0)  -->
<svg version="1.1" id="Слой_1" xmlns="http://www.w3.org/2000/svg" xmlns:xlink="http://www.w3.org/1999/xlink" x="0px" y="0px"
	 viewBox="0 0 773 200" style="enable-background:new 0 0 773 200;" xml:space="preserve">
<style type="text/css">
	.st0{fill:#583063;}
	.st1{fill:#429032;}
</style>
<path class="st0" d="M291.4,172.7v-16.6h3.1l5.1,7.8l5.1-7.8h3.1v16.6h-2.9v-11.9l-5.2,7.8h-0.1l-5.2-7.8v11.8H291.4z"/>
<path class="st0" d="M313.6,172.7v-16.6H326v2.6h-9.4v4.3h8.3v2.6h-8.4v4.5h9.5v2.6h-12.4V172.7z"/>
<path class="st0" d="M331.2,172.7v-16.6h6.5c1.9,0,3.4,0.5,4.6,1.5c1.2,1,1.7,2.3,1.7,4.1c0,1.8-0.7,3.2-1.9,4.2
	c-1.2,1-2.9,1.5-4.8,1.5H334v5.4L331.2,172.7L331.2,172.7z M334.1,164.7h3.4c1.1,0,2-0.3,2.6-0.8c0.7-0.6,1-1.2,1-2.2
	c0-1-0.3-1.7-1-2.2c-0.7-0.5-1.5-0.8-2.6-0.8h-3.4V164.7z"/>
<path class="st0" d="M348.7,172.7v-16.6H361v2.6h-9.4v4.3h8.4v2.6h-8.4v4.5h9.5v2.6h-12.5V172.7z"/>
<path class="st0" d="M378.5,172.7h-2.9v-4.4l-2.6-2.9l-5,7.4h-3.5l6.5-9.5l-6.2-7h3.5l7.3,8.7v-8.7h2.9v8.7l7.3-8.7h3.5l-6.2,7
	l6.6,9.5H386l-5-7.4l-2.6,2.9L378.5,172.7L378.5,172.7z"/>
<path class="st0" d="M392.3,172.7l7.3-16.7h2.7l7.3,16.7h-3.1l-1.7-4H397l-1.8,4H392.3z M398.1,166.1h5.7l-2.9-6.7L398.1,166.1z"/>
<path class="st0" d="M420.9,176.3v-6.2h1.6c1.4-2.8,2.1-6.7,2.1-11.7v-2.3h11.6v14h2.1l-0.4,6.2h-2.4v-3.6h-11.7l-0.3,3.6H420.9z
	 M425.7,170.1h7.6v-11.3h-5.9v1.9C427.5,164.5,426.9,167.7,425.7,170.1z"/>
<path class="st0" d="M442.8,172.7v-16.6h2.9v16.6H442.8z"/>
<path class="st0" d="M450.4,172.7l7.3-16.7h2.7l7.3,16.7h-3.1l-1.7-4h-7.8l-1.7,4H450.4z M456.2,166.1h5.7l-2.9-6.7L456.2,166.1z"/>
<path class="st0" d="M472.2,172.9c-0.7,0-1.3-0.1-2-0.3l0.3-2.4c0.3,0.1,0.6,0.1,1,0.1s0.7-0.1,1-0.1c0.3-0.1,0.6-0.4,0.9-0.8
	c0.3-0.4,0.6-1,0.7-1.8c0.1-0.7,0.4-1.8,0.4-3.2c0.1-1.4,0.2-3,0.2-5v-3.3h11.4v16.6h-2.9v-13.9h-5.7v1.5c0,2.6-0.1,4.7-0.4,6.4
	s-0.6,3-1,3.9c-0.4,0.9-1,1.5-1.6,1.8C473.8,172.7,473.1,172.9,472.2,172.9z"/>
<path class="st0" d="M492.2,172.7v-16.6h2.9v16.6H492.2z"/>
<path class="st0" d="M506.8,155.9c1.7,0,3.1,0.4,4.2,1.2c1.1,0.8,1.6,1.9,1.6,3.2c0,1.8-1,3.1-2.9,3.9c1,0.3,1.8,0.8,2.3,1.5
	c0.6,0.7,0.9,1.5,0.9,2.6c0,1.4-0.6,2.6-1.7,3.5c-1.1,1-2.6,1.4-4.4,1.4c-1.5,0-2.9-0.2-4-0.7c-1.1-0.4-2.2-1.1-3.2-2.1l1.6-2
	c1.5,1.5,3.4,2.2,5.5,2.2c1,0,1.7-0.2,2.3-0.7c0.7-0.4,1-1,1-1.8c0-0.8-0.4-1.5-1-1.8s-1.6-0.6-2.8-0.6h-1.9v-2.4h1.8
	c1.1,0,1.9-0.2,2.5-0.7c0.6-0.4,0.9-1,0.9-1.8c0-0.7-0.3-1.2-0.9-1.7s-1.3-0.7-2.3-0.7c-1.8,0-3.4,0.6-4.6,1.8l-1.5-1.9
	C502.1,156.7,504.3,155.9,506.8,155.9z"/>
<path class="st0" d="M518.1,172.7v-16.6h2.9v6.9h7.9v-6.9h2.9v16.6H529v-7h-7.9v7H518.1z"/>
<path class="st0" d="M537.9,172.7v-16.6h2.9v12.1l8.4-12.1h2.7v16.6H549v-12.1l-8.4,12.1H537.9z"/>
<path class="st0" d="M556.6,172.7l6-8.4l-5.8-8.1h3.4l4.1,5.9l4.2-5.9h3.4l-5.8,8.1l6,8.5h-3.4l-4.3-6.3l-4.4,6.3L556.6,172.7
	L556.6,172.7z"/>
<path class="st0" d="M585.5,172.7v-16.6h2.9v8.4l7.9-8.4h3.6l-6.9,7.1l7.2,9.5h-3.5l-5.6-7.5l-2.6,2.6v4.8H585.5z"/>
<path class="st0" d="M604.4,172.9c-0.7,0-1.3-0.1-2-0.3l0.3-2.4c0.3,0.1,0.6,0.1,1,0.1s0.7-0.1,1-0.1c0.3-0.1,0.6-0.4,0.9-0.8
	c0.3-0.4,0.6-1,0.7-1.8c0.1-0.7,0.4-1.8,0.4-3.2c0.1-1.4,0.2-3,0.2-5v-3.3h11.4v16.6h-2.9v-13.9h-5.7v1.5c0,2.6-0.1,4.7-0.4,6.4
	c-0.2,1.7-0.6,3-1,3.9c-0.4,0.9-1,1.5-1.6,1.8C606,172.7,605.3,172.9,604.4,172.9z"/>
<path class="st0" d="M624.3,172.7v-16.6h2.9v16.6H624.3z"/>
<path class="st0" d="M633.4,172.7v-16.6h2.9v6.9h7.9v-6.9h2.9v16.6h-2.9v-7h-7.9v7H633.4z"/>
<path class="st0" d="M653.2,172.7v-16.6h2.9v16.6H653.2z"/>
<path class="st0" d="M662.3,172.7v-16.6h2.9v8.4l7.9-8.4h3.6l-6.9,7.1l7.2,9.5h-3.5l-5.6-7.5l-2.6,2.6v4.8H662.3z"/>
<path class="st0" d="M247.1,130.2h-16.8v-25.8h-17.8v25.8h-16.9V73.9h16.9v19.9h17.7V73.9h16.8V130.2z"/>
<path class="st0" d="M294.7,130.2H257V73.9h34.4v10.5h-17.5v10.9h17V106h-16.8v13.6h20.7V130.2L294.7,130.2z"/>
<path class="st0" d="M365.5,77.8c-3.4-2.6-7.8-3.8-13.1-3.8h-10.9h-16.2h-9c-4.8,0-8.9,1.2-12.1,3.8c-3.7,2.9-5.5,7-5.5,12.2
	c0,6.3,2.1,11.1,6.2,14.4c2.9,2.4,6.8,4,11.5,4.7c1.6,0.2,3.7,0.4,6.2,0.4v-9.7c-0.7,0-1.4-0.1-2.3-0.4c-1.8-0.5-3.2-1.3-4.3-2.5
	c-1.5-1.6-2.3-3.8-2.3-6.5c0-2.3,0.9-3.9,2.6-4.8c1.3-0.7,3-1.1,5.2-1.1c1.1,0,2.1,0.1,2.8,0.2c0.4,0.1,0.6,0.1,0.8,0.1v45.2h0.6
	h15.7h0.7v-45c0.1-0.1,0.7-0.2,1.5-0.3c0.8-0.1,1.8-0.2,3-0.2c2.3,0,4.2,0.4,5.6,1.1c1.9,1,2.8,2.6,2.8,4.8c0,2.7-0.8,4.9-2.5,6.5
	c-1.2,1.2-2.7,2-4.6,2.5c-1,0.2-1.8,0.4-2.4,0.4v9.8c2.8,0,5.1-0.1,6.7-0.4c5.1-0.7,9.2-2.3,12.4-4.7c4.5-3.4,6.7-8.2,6.7-14.4
	C371.4,84.8,369.5,80.8,365.5,77.8z"/>
<path class="st0" d="M426.5,90.1c0,6.3-2.2,11.1-6.7,14.4c-3.2,2.4-7.3,4-12.4,4.7c-1.7,0.2-4,0.4-6.7,0.4v-9.7
	c0.7,0,1.5-0.1,2.4-0.4c1.9-0.5,3.4-1.3,4.6-2.5c1.7-1.6,2.5-3.8,2.5-6.5c0-2.3-1-3.9-2.8-4.8c-1.4-0.7-3.2-1.1-5.6-1.1
	c-1.2,0-2.2,0.1-3,0.2c-0.8,0.1-1.3,0.2-1.5,0.3v45h-16.9V73.9h27.1c5.3,0,9.6,1.2,13.1,3.8C424.6,80.8,426.5,84.8,426.5,90.1z"/>
<path class="st0" d="M490.4,102.4c0,8-2.5,14.8-7.5,20.3c-5.3,5.9-12,8.7-20.2,8.7c-8.8,0-15.8-3-21-8.9c-4.8-5.5-7.3-12.5-7.3-20.8
	c0-7.9,2.7-14.6,8.2-20.1c5.5-5.5,12.3-8.2,20.5-8.2c8.1,0,14.7,2.9,19.9,8.7C488,87.6,490.4,94.3,490.4,102.4z M472.7,101.9
	c0-4.7-0.7-8.4-1.9-11.3c-1.7-3.7-4.3-5.6-8-5.6c-4,0-6.8,1.8-8.7,5.6c-1.4,2.9-2.1,6.7-2.1,11.4c0,6.6,1,11.3,3.2,14.2
	c1.7,2.3,4.2,3.5,7.3,3.5c2.8,0,5.1-1,6.7-2.9c1.3-1.6,2.3-3.9,2.9-6.9C472.5,107.9,472.7,105.2,472.7,101.9z"/>
<path class="st1" d="M598.8,130.2h-37.8V73.9h34.4v10.5h-17.5v10.9h17V106h-16.8v13.6h20.7V130.2L598.8,130.2z"/>
<path class="st1" d="M658.7,130.2h-16.8v-25.8h-17.8v25.8h-16.9V73.9h16.9v19.9h17.7V73.9h16.8V130.2z"/>
<path class="st1" d="M716.7,84.6h-16.6v45.5h-16.8V84.6H667V74h49.7L716.7,84.6L716.7,84.6z"/>
<path class="st1" d="M772.1,90.1c0,6.3-2.2,11.1-6.7,14.4c-3.2,2.4-7.3,4-12.4,4.7c-1.7,0.2-4,0.4-6.7,0.4v-9.7
	c0.7,0,1.5-0.1,2.4-0.4c1.9-0.5,3.4-1.3,4.6-2.5c1.7-1.6,2.5-3.8,2.5-6.5c0-2.3-1-3.9-2.8-4.8c-1.4-0.7-3.2-1.1-5.6-1.1
	c-1.2,0-2.2,0.1-3,0.2c-0.8,0.1-1.3,0.2-1.5,0.3v45h-16.9V73.9h27.1c5.3,0,9.6,1.2,13.1,3.8C770.2,80.8,772.1,84.8,772.1,90.1z"/>
<path class="st1" d="M551.2,118.8V73.9h-16.8v45h-17.8v-45h-16.9v56.3h16.9h17.8h9v7.5h10.1l2.4-18.7L551.2,118.8z"/>
<path class="st1" d="M58.6,4c-9.1-5.2-20.2-5.3-29.4-0.4C-10.2,24.1,1.7,85.7,1.7,85.7c3.8,18.4,13.6,23.6,4.5,44.2
	c-13.5,30.7-2.2,43.4,11.2,47.9c3.3,1.1,13.2,1.4,24.6-2.6c0.5-10.1,7.6-24.4,31.6-43.1c4.4-3.5,8.8-6.4,12.9-9
	c2.6-9.9,4.2-21.6,4.3-35.2C91.3,33.3,72.9,12.2,58.6,4z"/>
<path class="st0" d="M144.4,111.3c-12.8-3.2-32.8-3.4-57.9,11.9c-8.5,32.3-28.1,46.5-44.4,52.1c-0.6,11.8,7.7,18,9.1,19.1
	c4.5,3.7,25.5,12.9,37.1-5.5c9.4-15,18.4-13.7,25.8-14.7c11.2-1.5,40.7-10.8,47.1-35.2C164.4,126.8,156.7,114.4,144.4,111.3z"/>
<path class="st1" d="M96,108.4c-0.3,0.4-0.9,0.1-0.7-0.3c4.1-13.1,18.7-58.4,25.1-56.4C126.7,53.5,102.9,96.2,96,108.4z"/>
<path class="st1" d="M95.8,108.5c-0.5,0.2-0.8-0.4-0.4-0.7c12-8.6,53.8-38.1,58-32.3C157.6,81.2,109.6,102.6,95.8,108.5z"/>
</svg>
